<svg width="42" height="28" viewBox="0 0 42 28" fill="none" xmlns="http://www.w3.org/2000/svg">
<rect x="0.5" y="0.5" width="41" height="27" rx="3.1" fill="#3FAE2A" stroke="#38A024"/>
<path fill-rule="evenodd" clip-rule="evenodd" d="M15.0249 12.4708C14.8681 12.3785 14.6883 12.314 14.5084 12.314C14.2594 12.314 14.015 12.4247 13.8536 12.6045C13.8205 12.6541 13.7423 12.7251 13.6837 12.7783C13.6607 12.7992 13.6406 12.8174 13.6276 12.8305C12.2303 14.1125 10.072 14.0433 8.79002 12.6506C7.50799 11.2579 7.57717 9.09508 8.96987 7.81306C9.60166 7.22739 10.4317 6.89074 11.308 6.89074C12.1427 6.84462 12.9497 7.16282 13.5584 7.72544L13.5815 7.7485C13.6276 7.77155 13.6737 7.77155 13.7152 7.77155L15.3339 7.52253C15.4907 7.49947 15.4261 7.36573 15.4261 7.36573C15.1356 6.84462 13.9412 4.99998 11.1512 5.02304C8.2274 5.04149 6.02306 7.33806 6 10.331C6.02306 13.2547 8.40726 15.6436 11.3541 15.6205C12.7929 15.6205 14.1671 15.0118 15.1586 13.9788C15.175 13.9542 15.1937 13.9302 15.2131 13.9054L15.2131 13.9054C15.2483 13.8602 15.2857 13.8123 15.3154 13.7528C15.4077 13.596 15.4492 13.4162 15.4492 13.2363C15.4307 12.9412 15.2693 12.6506 15.0249 12.4708ZM33.6327 13.7528L34.7118 14.8319C34.8686 15.0118 34.9608 15.2377 34.9655 15.4822C34.9655 15.9986 34.5596 16.4045 34.0431 16.4045C33.8633 16.4045 33.6834 16.3399 33.5266 16.2477L31.0963 13.7712L31.0733 13.7482C30.8934 13.5683 30.7366 13.3885 30.5798 13.1856C30.2662 12.872 30.0864 12.4247 30.0864 11.9727C30.0864 11.2994 30.4922 10.6676 31.3684 10.4647C32.2446 10.2618 32.8533 9.83755 32.8533 9.02591C32.8533 8.21888 32.0878 7.58709 31.2116 7.58709H29.1871V14.7812C29.1871 14.8227 29.1641 14.8688 29.141 14.8919C29.118 14.9149 29.0949 14.9149 29.0718 14.9149L27.5638 15.1409H27.5408C27.5223 15.1639 27.4762 15.1639 27.4301 15.1409C27.391 15.1253 27.3851 15.1063 27.3701 15.0588C27.3674 15.0502 27.3644 15.0408 27.3609 15.0302V5.94075C27.3609 5.89925 27.384 5.85313 27.407 5.83007C27.4486 5.80701 27.4716 5.80701 27.5177 5.80701H31.1839C32.9133 5.80701 34.6703 6.9553 34.6703 9.04897C34.6703 10.829 33.6788 11.7514 32.1939 12.065L31.9679 12.1111L33.6327 13.7528ZM23.0583 19.7156C23.192 19.8955 23.2797 20.0984 23.3488 20.3243C23.4411 20.5687 23.4641 20.8408 23.4411 21.0899C23.4411 21.3619 23.3996 21.6294 23.3304 21.8784C23.2889 22.1044 23.1736 22.3304 23.0168 22.5102C22.86 22.6901 22.6802 22.8469 22.4542 22.9391C22.2052 23.0498 21.9146 23.0959 21.6425 23.0959C21.3935 23.0959 21.1491 23.0728 20.9001 23.0267C20.6557 23.0037 20.4297 22.9345 20.2037 22.8238C20.1576 22.8008 20.1346 22.7777 20.1115 22.7546C20.0884 22.7131 20.0884 22.6901 20.0884 22.644V18.2537C20.0884 17.9862 20.2867 17.7603 20.5588 17.7603H20.7848C20.8263 17.7603 20.8724 17.7603 20.8955 17.7833C20.9185 17.8248 20.9185 17.8479 20.9185 17.894V19.2913C21.0799 19.2452 21.2137 19.2222 21.3705 19.1991C21.5319 19.176 21.6656 19.176 21.8224 19.176C22.0714 19.153 22.3389 19.1991 22.5649 19.3098C22.7447 19.402 22.9246 19.5357 23.0583 19.7156ZM11.0866 17.9816C11.1512 17.9816 11.1973 18.0047 11.2203 18.0278C11.2343 18.0418 11.2398 18.0643 11.2472 18.0942C11.2519 18.1136 11.2574 18.1361 11.2664 18.1615V18.6134C11.2664 18.6549 11.2434 18.701 11.2203 18.7472C11.2203 18.7702 11.1788 18.7933 11.1097 18.7933H9.19584C9.0621 18.7702 8.92375 18.8117 8.81308 18.904C8.72546 18.9916 8.7024 19.1069 8.7024 19.2406V20.0753H10.8376C10.9021 20.0753 10.9252 20.0984 10.9482 20.1214C10.9713 20.1629 10.9713 20.209 10.9713 20.2552V20.661C10.9713 20.6794 10.9713 20.7255 10.9482 20.7717C10.9482 20.7947 10.9067 20.8178 10.8376 20.8178H8.69779V22.501C8.69779 22.7685 8.47643 22.9944 8.20434 22.9944H7.97838C7.93687 22.9944 7.89076 22.9944 7.84464 22.9714C7.82158 22.9529 7.79852 22.9299 7.79852 22.8607V19.2821C7.79852 19.1023 7.82158 18.9455 7.8677 18.7887C7.95993 18.4751 8.1859 18.203 8.47643 18.0923C8.67934 18.0047 8.88225 17.9816 9.08516 17.9816H11.0866ZM25.4656 19.153C26.0051 19.153 26.4109 19.2867 26.6784 19.5819C26.9505 19.8955 27.0842 20.3243 27.0612 20.7532C27.0612 20.8639 27.0612 20.9561 27.0151 21.0668C26.992 21.136 26.9459 21.2005 26.8813 21.2467C26.8352 21.2928 26.7706 21.3389 26.7015 21.3389C26.6323 21.3619 26.5447 21.3619 26.4755 21.3619H24.5847C24.5847 21.5187 24.6078 21.6755 24.677 21.8323C24.7231 21.943 24.7877 22.0583 24.8799 22.1459C24.9721 22.2151 25.0828 22.2796 25.1935 22.3258L25.2368 22.3333C25.3527 22.3536 25.4571 22.3719 25.5762 22.3719C25.7122 22.3719 25.8309 22.3545 25.9652 22.3349L26.0282 22.3258C26.126 22.3089 26.2264 22.2673 26.3165 22.23C26.3496 22.2163 26.3812 22.2032 26.4109 22.192C26.5032 22.169 26.5447 22.169 26.5677 22.2381L26.7476 22.644C26.7937 22.6901 26.7706 22.7777 26.7015 22.8008H26.6784C26.4986 22.9114 26.2957 22.9806 26.0927 23.0267C25.8898 23.0728 25.6869 23.0959 25.484 23.0959C24.9906 23.142 24.5156 22.9622 24.1559 22.6255C23.8423 22.3119 23.7039 21.8139 23.7039 21.1636C23.7039 20.8731 23.75 20.601 23.8377 20.3289C23.9068 20.103 24.0406 19.877 24.1974 19.6972C24.3542 19.5173 24.534 19.4066 24.7369 19.3144C25.0136 19.1991 25.2627 19.153 25.4656 19.153ZM14.2824 22.5978C14.2824 22.6901 14.2363 22.7777 14.1487 22.8238C14.038 22.8699 13.9227 22.916 13.8121 22.9345C13.7014 22.9806 13.563 23.0037 13.4293 23.0037C13.2956 23.0267 13.1572 23.0498 13.0465 23.0498H12.6868C12.4147 23.0498 12.1703 23.0267 11.8982 22.9576C11.7184 22.9114 11.5385 22.8238 11.4048 22.7085C11.2941 22.5978 11.2019 22.4826 11.1558 22.3258C11.1097 22.192 11.0866 22.0352 11.0866 21.8738C11.0866 21.7124 11.1097 21.5372 11.1788 21.4034C11.2249 21.2467 11.3126 21.1129 11.4509 20.9976C11.5846 20.8639 11.7645 20.7717 11.9213 20.7255C12.1473 20.6564 12.3917 20.6149 12.6407 20.6149H13.4523V20.5042C13.4523 20.412 13.4523 20.3243 13.4293 20.2552C13.4114 20.2015 13.3796 20.1506 13.3469 20.0982C13.3374 20.083 13.3279 20.0677 13.3186 20.0522C13.2494 19.9831 13.1849 19.9416 13.0926 19.9185C12.982 19.8724 12.8436 19.8724 12.7329 19.8724C12.5531 19.8724 12.3732 19.8955 12.1934 19.9185C12.0366 19.9416 11.8798 19.9646 11.723 20.0107H11.6123C11.5893 19.9877 11.5662 19.9646 11.5662 19.9185L11.474 19.5357C11.4509 19.4666 11.474 19.402 11.5431 19.379C11.7461 19.2867 11.972 19.2452 12.198 19.2222C12.424 19.1991 12.6499 19.176 12.8713 19.176C13.3647 19.176 13.7244 19.2867 13.9735 19.5127C14.2225 19.7617 14.3562 20.1214 14.3101 20.4811L14.2824 22.5978ZM13.397 21.2467H12.7514C12.6592 21.2467 12.5946 21.2467 12.4793 21.2697C12.4185 21.2697 12.3597 21.2898 12.3002 21.31L12.3002 21.31C12.2695 21.3205 12.2386 21.331 12.2072 21.3389C12.115 21.385 12.0504 21.4496 12.0043 21.5187C11.9351 21.6294 11.9121 21.7447 11.9121 21.8554C11.889 22.0352 11.9812 22.192 12.115 22.2843C12.2948 22.3765 12.4747 22.418 12.6776 22.418H12.8113C12.8805 22.418 12.9451 22.418 12.9912 22.3949L13.1941 22.3488C13.2287 22.3373 13.2621 22.3315 13.2955 22.3258L13.2956 22.3258L13.2956 22.3258C13.329 22.32 13.3624 22.3142 13.397 22.3027V21.2467ZM18.7834 21.2467L18.7557 22.3027C18.7211 22.3142 18.6877 22.32 18.6543 22.3258L18.6542 22.3258L18.6542 22.3258C18.6208 22.3315 18.5874 22.3373 18.5528 22.3488L18.5406 22.3529C18.476 22.3745 18.415 22.3949 18.3499 22.3949C18.2807 22.418 18.2161 22.418 18.147 22.418H18.0132C17.8334 22.418 17.6305 22.3765 17.4737 22.2843C17.3399 22.192 17.2477 22.0352 17.2708 21.8554C17.2708 21.7447 17.2938 21.6294 17.363 21.5187C17.4091 21.4496 17.4737 21.385 17.5659 21.3389C17.5973 21.331 17.6282 21.3205 17.6589 21.31L17.6589 21.31C17.7183 21.2898 17.7772 21.2697 17.838 21.2697C17.9302 21.2467 18.0178 21.2467 18.1101 21.2467H18.7834ZM19.6134 22.5978C19.6134 22.6901 19.5673 22.7777 19.4797 22.8238C19.369 22.8699 19.2537 22.916 19.1431 22.9345C19.0324 22.9806 18.894 23.0037 18.7834 23.0037L18.7401 23.0112C18.6242 23.0315 18.5197 23.0498 18.4006 23.0498H18.0409C17.7688 23.0498 17.5013 23.0267 17.2523 22.9576C17.0725 22.9114 16.8926 22.8238 16.7589 22.7085C16.6482 22.5978 16.556 22.4826 16.5098 22.3258C16.4637 22.192 16.4407 22.0352 16.4407 21.8738C16.4407 21.7124 16.4637 21.5372 16.5329 21.4034C16.579 21.2467 16.6666 21.1129 16.805 20.9976C16.9387 20.8639 17.1186 20.7717 17.2754 20.7255C17.5013 20.6564 17.7457 20.6149 17.9948 20.6149H18.8064V20.5042C18.8064 20.412 18.8064 20.3243 18.7834 20.2552C18.7603 20.186 18.7372 20.1214 18.6727 20.0522C18.6081 19.9831 18.5389 19.9416 18.4467 19.9185C18.336 19.8724 18.1977 19.8724 18.087 19.8724C17.9072 19.8724 17.7273 19.8955 17.5474 19.9185C17.3907 19.9416 17.2339 19.9646 17.0771 20.0107H16.9664C16.9433 20.0107 16.9203 19.9646 16.9203 19.9185L16.8096 19.5357C16.7865 19.4666 16.8096 19.402 16.8788 19.379C17.0817 19.2867 17.3076 19.2452 17.5336 19.2222C17.7596 19.1991 17.9855 19.176 18.2069 19.176C18.7003 19.176 19.0601 19.2867 19.3091 19.5127C19.5581 19.7848 19.6688 20.1214 19.6457 20.4811L19.6134 22.5978ZM24.8568 20.1214C25.0136 19.9416 25.2396 19.8493 25.4656 19.8493C25.5993 19.8493 25.733 19.8724 25.8207 19.8955C25.9359 19.9416 26.0005 20.0061 26.0697 20.0984C26.1342 20.186 26.1804 20.2782 26.2034 20.3889C26.2265 20.4996 26.2495 20.6379 26.2495 20.7486H24.6078C24.6078 20.6379 24.6309 20.5226 24.677 20.412C24.7231 20.3013 24.7877 20.2137 24.8568 20.1214ZM32.5305 21.2467H33.1992V22.3027C33.1646 22.3142 33.1312 22.32 33.0978 22.3258L33.0978 22.3258L33.0977 22.3258C33.0643 22.3315 33.0309 22.3373 32.9963 22.3488L32.9841 22.3529C32.9195 22.3745 32.8585 22.3949 32.7934 22.3949C32.7473 22.418 32.6827 22.418 32.6135 22.418H32.4798C32.2769 22.418 32.097 22.3765 31.9172 22.2843C31.7835 22.192 31.6912 22.0352 31.7143 21.8554C31.7143 21.7447 31.7373 21.6294 31.8065 21.5187C31.8526 21.4496 31.9172 21.385 32.0094 21.3389C32.0408 21.331 32.0716 21.3205 32.1023 21.3101L32.1023 21.3101L32.1023 21.3101L32.1023 21.3101L32.1024 21.3101L32.1024 21.31L32.1024 21.31L32.1024 21.31L32.1024 21.31C32.1619 21.2898 32.2207 21.2697 32.2815 21.2697C32.3737 21.2467 32.4614 21.2467 32.5305 21.2467ZM34.0846 22.5978C34.0846 22.6901 34.0385 22.7777 33.9509 22.8238C33.8402 22.8699 33.7249 22.916 33.6143 22.9345C33.5036 22.9806 33.3652 23.0037 33.2315 23.0037C33.0978 23.0267 32.9594 23.0498 32.8487 23.0498H32.489C32.2169 23.0498 31.9495 23.0267 31.7004 22.9576C31.5206 22.9114 31.3638 22.8238 31.207 22.7085C31.0963 22.5978 31.0041 22.4826 30.958 22.3258C30.9119 22.192 30.8888 22.0352 30.8888 21.8738C30.8888 21.7124 30.9119 21.5372 30.981 21.4034C31.0272 21.2467 31.1378 21.1129 31.2531 20.9976C31.3869 20.8639 31.5437 20.7717 31.7235 20.7255C31.9495 20.6564 32.1939 20.6149 32.4429 20.6149H33.2546V20.5042C33.2546 20.412 33.2546 20.3243 33.2315 20.2552C33.2136 20.2015 33.1818 20.1506 33.1491 20.0982L33.1491 20.0982L33.1491 20.0981L33.1491 20.0981L33.149 20.098L33.149 20.098C33.1396 20.0829 33.1301 20.0677 33.1208 20.0522C33.0516 19.9831 32.9871 19.9416 32.8949 19.9185C32.7842 19.8724 32.6458 19.8724 32.5351 19.8724C32.3553 19.8724 32.1754 19.8955 31.9956 19.9185C31.8388 19.9416 31.7051 19.9646 31.5437 20.0107H31.433C31.4099 19.9877 31.3869 19.9646 31.3869 19.9185L31.2762 19.5357C31.2531 19.4666 31.2762 19.402 31.3454 19.379C31.5483 19.2867 31.7742 19.2452 32.0002 19.2222C32.2262 19.1991 32.4521 19.176 32.6735 19.176C33.1669 19.176 33.5266 19.2867 33.7757 19.5127C34.0247 19.7848 34.1354 20.1214 34.1123 20.4811L34.0846 22.5978ZM22.5188 21.694C22.4726 21.8277 22.4081 21.9661 22.3158 22.0767C22.2236 22.169 22.136 22.2566 22.0023 22.3027C21.8685 22.3488 21.7302 22.3719 21.5964 22.3719C21.4858 22.3719 21.3705 22.3719 21.2598 22.3488C21.2045 22.3373 21.1424 22.3258 21.0802 22.3143L21.08 22.3142L21.0799 22.3142C21.0177 22.3027 20.9554 22.2912 20.9001 22.2796V19.9831C21.0202 19.9416 21.159 19.9188 21.2863 19.8979L21.329 19.8908C21.4396 19.8678 21.5549 19.8678 21.6656 19.8678C21.9377 19.8447 22.1821 19.9785 22.3389 20.1814C22.5188 20.4535 22.611 20.7901 22.5879 21.1267C22.6064 21.3112 22.5833 21.4911 22.5188 21.694ZM28.9058 22.8192L28.8597 22.4364C28.8597 22.4134 28.8597 22.3673 28.8366 22.3673C28.8136 22.3442 28.7905 22.3442 28.7444 22.3673L28.6337 22.3903H28.5046C28.4354 22.3903 28.3709 22.3673 28.3017 22.3212C28.2556 22.252 28.2325 22.1644 28.2556 22.0721V17.8848C28.2556 17.8387 28.2556 17.8156 28.2325 17.7926C28.1864 17.7695 28.1633 17.7695 28.1218 17.7695H27.8959C27.6238 17.7695 27.4255 17.9955 27.4255 18.2629V22.2243C27.4024 22.4503 27.4716 22.6947 27.6053 22.8792C27.7621 23.0129 27.9881 23.0821 28.191 23.059C28.2833 23.059 28.3939 23.059 28.5046 23.0359L28.5523 23.0261C28.6477 23.0063 28.7431 22.9865 28.8182 22.9668C28.8268 22.9582 28.8386 22.9528 28.8512 22.947C28.8724 22.9373 28.896 22.9265 28.9104 22.8976C28.9289 22.8884 28.9289 22.8653 28.9058 22.8192ZM30.709 22.4134L30.7551 22.8192C30.767 22.8489 30.7712 22.869 30.7739 22.8821L30.776 22.8915C30.7767 22.894 30.7773 22.896 30.7781 22.8976C30.7666 22.9091 30.7493 22.9207 30.732 22.9322C30.7147 22.9437 30.6974 22.9552 30.6859 22.9668L30.3492 23.0359C30.2155 23.059 30.1048 23.059 30.0126 23.059C29.8097 23.0821 29.5837 23.0129 29.4269 22.8792C29.2932 22.6947 29.224 22.4503 29.2471 22.2243V18.2629C29.2471 17.9955 29.4454 17.7695 29.7175 17.7695H29.9434C29.9849 17.7695 30.008 17.7695 30.0541 17.7926C30.0772 17.7926 30.0772 17.8387 30.0772 17.8848V22.0491C30.0772 22.1413 30.0772 22.2289 30.1233 22.2981C30.1925 22.3442 30.257 22.3673 30.3262 22.3673H30.4599L30.5937 22.3442H30.6859C30.6859 22.3442 30.709 22.3903 30.709 22.4134ZM16.3069 22.8192L16.2608 22.4364C16.2608 22.3903 16.2378 22.3673 16.2378 22.3673H16.1455L16.0118 22.3903H15.878C15.8089 22.3903 15.7443 22.3673 15.6751 22.3212C15.629 22.252 15.606 22.1644 15.629 22.0721V17.8848C15.629 17.8387 15.629 17.7926 15.606 17.7926C15.5829 17.7695 15.5368 17.7695 15.4953 17.7695H15.2693C14.9972 17.7695 14.7989 17.9955 14.7989 18.2629V22.2243C14.7759 22.4503 14.845 22.6947 14.9788 22.8792C15.1356 23.0129 15.3615 23.0821 15.5645 23.059C15.6567 23.059 15.7674 23.059 15.878 23.0359L16.2147 22.9668C16.2262 22.9552 16.2435 22.9437 16.2608 22.9322C16.2781 22.9207 16.2954 22.9091 16.3069 22.8976C16.33 22.8884 16.33 22.8653 16.3069 22.8192ZM23.5056 6.66016C23.8423 5.96381 24.2712 5.42425 25.0367 5.42425C25.8022 5.44731 26.4109 6.05604 26.4571 6.81695V15.1639C26.4571 15.2285 26.434 15.2516 26.4109 15.2746C26.3879 15.2977 26.3418 15.2977 26.3187 15.2977L24.7877 15.5237H24.6539C24.6078 15.5052 24.5847 15.4822 24.5847 15.413V8.37106L21.9515 13.7712L21.4996 14.7166C21.4996 14.7166 21.4765 14.7627 21.4535 14.7627C21.4447 14.7539 21.4359 14.7485 21.4283 14.7438C21.4162 14.7363 21.4074 14.7309 21.4074 14.7166L20.8447 13.7712L18.2115 9.36256V15.4499C18.1885 15.9203 17.8057 16.303 17.3353 16.3261C16.8188 16.3491 16.3899 15.9664 16.3669 15.4499V7.48564C16.3669 7.42107 16.3899 7.39802 16.413 7.37496C16.4245 7.37496 16.4361 7.36919 16.4476 7.36343C16.4591 7.35766 16.4706 7.3519 16.4822 7.3519L18.8894 7.01525H18.9355C18.9586 7.01525 19.0047 7.06137 19.0278 7.10748L19.5673 8.05286L21.3428 11.0688C21.3428 11.0688 21.3659 11.115 21.3889 11.115C21.412 11.115 21.435 11.0688 21.435 11.0688L23.5056 6.66016Z" fill="white"/>
</svg>
